<?xml version="1.0" encoding="UTF-8" standalone="no"?>
<!DOCTYPE svg PUBLIC "-//W3C//DTD SVG 1.1//EN" "http://www.w3.org/Graphics/SVG/1.1/DTD/svg11.dtd">
<svg width="100%" height="100%" viewBox="0 0 4213 1046" version="1.1" xmlns="http://www.w3.org/2000/svg" xmlns:xlink="http://www.w3.org/1999/xlink" xml:space="preserve" xmlns:serif="http://www.serif.com/" style="fill-rule:evenodd;clip-rule:evenodd;stroke-linejoin:round;stroke-miterlimit:2;">
    <g transform="matrix(4.16667,0,0,4.16667,0,0)">
        <rect x="87.178" y="0.486" width="85.489" height="51.322" style="fill:rgb(225,25,143);fill-rule:nonzero;"/>
        <rect x="87.178" y="199.678" width="85.489" height="51.322" style="fill:rgb(5,113,186);fill-rule:nonzero;"/>
        <path d="M259.846,100.215L217.101,26.18L172.656,51.841L215.4,125.876L259.846,100.215Z" style="fill:rgb(55,193,205);fill-rule:nonzero;"/>
        <path d="M216.935,225.389L259.68,151.354L215.234,125.693L172.49,199.728L216.935,225.389Z" style="fill:rgb(0,179,228);fill-rule:nonzero;"/>
        <path d="M0,100.215L42.744,26.18L87.19,51.841L44.445,125.876L0,100.215Z" style="fill:rgb(227,114,172);fill-rule:nonzero;"/>
        <path d="M42.91,225.389L0.165,151.354L44.611,125.693L87.355,199.728L42.91,225.389Z" style="fill:rgb(158,88,163);fill-rule:nonzero;"/>
        <path d="M334.067,185.147L334.067,64.758L356.834,64.758L356.834,164.963L404.263,164.963L404.263,185.147L334.067,185.147Z" style="fill:white;fill-rule:nonzero;"/>
        <path d="M472.747,158.243L472.747,146.34L458.601,146.34C447.047,146.34 441.357,150.302 441.357,157.379L441.357,160.311C441.357,167.554 446.358,171.176 454.98,171.176C464.814,171.176 472.747,166.69 472.747,158.243ZM418.931,160.652C418.931,142.196 432.902,133.059 457.397,133.059L472.747,133.059L472.747,126.505C472.747,116.496 467.746,110.632 456.018,110.632C445.668,110.632 439.804,115.807 435.493,122.02L422.386,110.292C428.94,99.943 439.456,93.04 457.571,93.04C481.891,93.04 494.824,104.594 494.824,125.126L494.824,167.554L503.795,167.554L503.795,185.147L491.551,185.147C482.066,185.147 476.202,178.934 474.815,169.622L473.785,169.622C470.853,181.176 461.018,187.215 447.562,187.215C429.28,187.215 418.931,176.691 418.931,160.652Z" style="fill:white;fill-rule:nonzero;"/>
        <path d="M520.024,185.147L520.024,95.109L542.102,95.109L542.102,110.117L542.958,110.117C546.413,100.632 553.656,93.04 567.112,93.04C579.355,93.04 588.841,99.079 593.152,111.155L593.5,111.155C596.773,101.147 606.782,93.04 621.094,93.04C638.686,93.04 648.695,105.806 648.695,128.225L648.695,185.147L626.617,185.147L626.617,130.467C626.617,117.535 621.957,111.155 612.131,111.155C603.501,111.155 595.394,115.981 595.394,125.641L595.394,185.147L573.317,185.147L573.317,130.467C573.317,117.535 568.665,111.155 558.831,111.155C550.375,111.155 542.102,115.981 542.102,125.641L542.102,185.147L520.024,185.147Z" style="fill:white;fill-rule:nonzero;"/>
        <path d="M728.899,147.893L728.899,132.369C728.899,119.603 720.966,111.155 709.587,111.155C699.063,111.155 691.131,116.845 691.131,125.641L691.131,154.273C691.131,163.584 699.063,168.933 709.587,168.933C720.966,168.933 728.899,160.652 728.899,147.893ZM669.053,57.507L691.131,57.507L691.131,109.943L691.82,109.943C695.093,99.594 704.753,93.04 716.655,93.04C739.423,93.04 752.015,109.943 752.015,139.953C752.015,170.138 739.423,187.215 716.655,187.215C704.753,187.215 695.267,180.321 691.82,170.138L691.131,170.138L691.131,185.147L669.053,185.147L669.053,57.507Z" style="fill:white;fill-rule:nonzero;"/>
        <path d="M787.731,130.643L787.731,132.021L824.643,132.021L824.643,130.467C824.643,118.05 818.256,109.602 806.876,109.602C795.314,109.602 787.731,118.224 787.731,130.643ZM764.789,139.953C764.789,111.496 780.139,93.04 806.527,93.04C834.644,93.04 847.577,113.739 847.577,138.408L847.577,145.651L787.731,145.651L787.731,147.893C787.731,160.826 795.148,169.622 809.634,169.622C820.498,169.622 827.052,164.448 832.575,157.379L844.478,170.661C837.061,180.836 823.946,187.215 807.217,187.215C780.654,187.215 764.789,168.759 764.789,139.953Z" style="fill:white;fill-rule:nonzero;"/>
        <path d="M865.351,185.147L865.351,95.109L887.429,95.109L887.429,110.117L888.285,110.117C891.914,100.458 899.498,93.04 913.469,93.04C931.925,93.04 942.275,105.806 942.275,128.225L942.275,185.147L920.197,185.147L920.197,130.467C920.197,117.709 915.886,111.155 905.362,111.155C896.225,111.155 887.429,115.981 887.429,125.641L887.429,185.147L865.351,185.147Z" style="fill:white;fill-rule:nonzero;"/>
        <path d="M969.876,162.205L969.876,112.701L956.594,112.701L956.594,95.109L963.496,95.109C970.05,95.109 972.118,92.01 972.118,85.797L972.118,70.447L991.953,70.447L991.953,95.109L1010.41,95.109L1010.41,112.701L991.953,112.701L991.953,167.554L1009.03,167.554L1009.03,185.147L993.158,185.147C977.982,185.147 969.876,176.865 969.876,162.205Z" style="fill:white;fill-rule:nonzero;"/>
    </g>
</svg>
